{
  "accessors": [
    {
      "bufferView": 2,
      "componentType": 5126,
      "count": 2723,
      "max": [
        1.8179819583892822,
        1.7343000173568726,
        1.6646209955215454
      ],
      "min": [
        -1.5093569755554199,
        -1.6143180131912231,
        -3.2305009365081787
      ],
      "type": "VEC3"
    },
    {
      "bufferView": 2,
      "byteOffset": 32676,
      "componentType": 5126,
      "count": 2723,
      "max": [
        0.99959248304367065,
        0.99607092142105103,
        0.99862211942672729
      ],
      "min": [
        -0.99673479795455933,
        -0.99952048063278198,
        -0.99862378835678101
      ],
      "type": "VEC3"
    },
    {
      "bufferView": 1,
      "componentType": 5126,
      "count": 2723,
      "max": [
        0.77526199817657471,
        0.99000000953674316
      ],
      "min": [
        0.0099999997764825821,
        0.24343299865722656
      ],
      "type": "VEC2"
    },
    {
      "bufferView": 0,
      "componentType": 5125,
      "count": 11145,
      "max": [
        2722
      ],
      "min": [
        0
      ],
      "type": "SCALAR"
    }
  ],
  "asset": {
    "extras": {
      "author": "hellotaia (https://sketchfab.com/hellotaia)",
      "license": "CC-BY-4.0 (http://creativecommons.org/licenses/by/4.0/)",
      "source": "https://sketchfab.com/3d-models/flower-test-b0723478aacb480dbd755dee883d32aa",
      "title": "flower test"
    },
    "generator": "Sketchfab-8.14.0",
    "version": "2.0"
  },
  "bufferViews": [
    {
      "buffer": 0,
      "byteLength": 44580,
      "byteOffset": 0,
      "name": "floatBufferViews",
      "target": 34963
    },
    {
      "buffer": 0,
      "byteLength": 21784,
      "byteOffset": 44580,
      "byteStride": 8,
      "name": "floatBufferViews",
      "target": 34962
    },
    {
      "buffer": 0,
      "byteLength": 65352,
      "byteOffset": 66364,
      "byteStride": 12,
      "name": "floatBufferViews",
      "target": 34962
    }
  ],
  "buffers": [
    {
      "byteLength": 131716,
      "uri": "scene.bin"
    }
  ],
  "images": [
    {
      "uri": "textures/branch.002_baseColor.png"
    }
  ],
  "materials": [
    {
      "doubleSided": true,
      "name": "branch.002",
      "pbrMetallicRoughness": {
        "baseColorFactor": [
          1,
          1,
          1,
          1
        ],
        "baseColorTexture": {
          "index": 0,
          "texCoord": 0
        },
        "metallicFactor": 0,
        "roughnessFactor": 0.59999999999999998
      }
    }
  ],
  "meshes": [
    {
      "primitives": [
        {
          "attributes": {
            "NORMAL": 1,
            "POSITION": 0,
            "TEXCOORD_0": 2
          },
          "indices": 3,
          "material": 0,
          "mode": 4
        }
      ]
    }
  ],
  "nodes": [
    {
      "children": [
        1
      ],
      "name": "RootNode (gltf orientation matrix)",
      "rotation": [
        -0.70710678118654746,
        -0,
        -0,
        0.70710678118654757
      ]
    },
    {
      "children": [
        2
      ],
      "name": "RootNode (model correction matrix)"
    },
    {
      "children": [
        3
      ],
      "name": "2005d34654144e7a914b46d192a61331.obj.cleaner.materialmerger.gles"
    },
    {
      "mesh": 0,
      "name": ""
    }
  ],
  "samplers": [
    {
      "magFilter": 9729,
      "minFilter": 9987,
      "wrapS": 10497,
      "wrapT": 10497
    }
  ],
  "scene": 0,
  "scenes": [
    {
      "name": "OSG_Scene",
      "nodes": [
        0
      ]
    }
  ],
  "textures": [
    {
      "sampler": 0,
      "source": 0
    }
  ]
}

